<svg width="60" height="60" viewBox="0 0 60 60" fill="none" xmlns="http://www.w3.org/2000/svg">
<path d="M5 30C5 16.1925 16.1925 5 30 5C43.8075 5 55 16.1925 55 30C55 43.8075 43.8075 55 30 55H5L12.3225 47.6775C9.99759 45.3586 8.15384 42.6032 6.8972 39.5695C5.64056 36.5358 4.99581 33.2837 5 30ZM17.07 50H30C33.9556 50 37.8224 48.827 41.1114 46.6294C44.4004 44.4318 46.9638 41.3082 48.4776 37.6537C49.9913 33.9991 50.3874 29.9778 49.6157 26.0982C48.844 22.2186 46.9392 18.6549 44.1421 15.8579C41.3451 13.0608 37.7814 11.156 33.9018 10.3843C30.0222 9.61259 26.0009 10.0087 22.3463 11.5224C18.6918 13.0362 15.5682 15.5996 13.3706 18.8886C11.173 22.1776 10 26.0444 10 30C10 35.38 12.1275 40.4125 15.8575 44.1425L19.3925 47.6775L17.07 50ZM20 32.5H40C40 35.1522 38.9464 37.6957 37.0711 39.5711C35.1957 41.4464 32.6522 42.5 30 42.5C27.3478 42.5 24.8043 41.4464 22.9289 39.5711C21.0536 37.6957 20 35.1522 20 32.5Z" fill="black"/>
</svg>
