<svg width="71" height="70" viewBox="0 0 71 70" fill="none" xmlns="http://www.w3.org/2000/svg">
<path d="M69.6389 35C69.6389 54.0529 54.1626 69.5 35.0694 69.5C15.9763 69.5 0.5 54.0529 0.5 35C0.5 15.9471 15.9763 0.5 35.0694 0.5C54.1626 0.5 69.6389 15.9471 69.6389 35Z" stroke="url(#paint0_linear)"/>
<path d="M16.3711 37.5234C16.3711 36.8594 16.1367 36.3516 15.668 36C15.1992 35.6406 14.3555 35.2656 13.1367 34.875C11.918 34.4766 10.9531 34.0859 10.2422 33.7031C8.30469 32.6562 7.33594 31.2461 7.33594 29.4727C7.33594 28.5508 7.59375 27.7305 8.10938 27.0117C8.63281 26.2852 9.37891 25.7188 10.3477 25.3125C11.3242 24.9062 12.418 24.7031 13.6289 24.7031C14.8477 24.7031 15.9336 24.9258 16.8867 25.3711C17.8398 25.8086 18.5781 26.4297 19.1016 27.2344C19.6328 28.0391 19.8984 28.9531 19.8984 29.9766H16.3828C16.3828 29.1953 16.1367 28.5898 15.6445 28.1602C15.1523 27.7227 14.4609 27.5039 13.5703 27.5039C12.7109 27.5039 12.043 27.6875 11.5664 28.0547C11.0898 28.4141 10.8516 28.8906 10.8516 29.4844C10.8516 30.0391 11.1289 30.5039 11.6836 30.8789C12.2461 31.2539 13.0703 31.6055 14.1562 31.9336C16.1562 32.5352 17.6133 33.2812 18.5273 34.1719C19.4414 35.0625 19.8984 36.1719 19.8984 37.5C19.8984 38.9766 19.3398 40.1367 18.2227 40.9805C17.1055 41.8164 15.6016 42.2344 13.7109 42.2344C12.3984 42.2344 11.2031 41.9961 10.125 41.5195C9.04688 41.0352 8.22266 40.375 7.65234 39.5391C7.08984 38.7031 6.80859 37.7344 6.80859 36.6328H10.3359C10.3359 38.5156 11.4609 39.457 13.7109 39.457C14.5469 39.457 15.1992 39.2891 15.668 38.9531C16.1367 38.6094 16.3711 38.1328 16.3711 37.5234ZM36.1758 42H32.6602V34.6875H25.8047V42H22.2891V24.9375H25.8047V31.8516H32.6602V24.9375H36.1758V42ZM49.1016 38.4844H42.9375L41.7656 42H38.0273L44.3789 24.9375H47.6367L54.0234 42H50.2852L49.1016 38.4844ZM43.8867 35.6367H48.1523L46.0078 29.25L43.8867 35.6367ZM59.3555 42H55.8398V24.9375H59.3555V42Z" fill="url(#paint1_diamond)"/>
<defs>
<linearGradient id="paint0_linear" x1="35.0694" y1="0" x2="35.0694" y2="70" gradientUnits="userSpaceOnUse">
<stop stop-color="#FF4848"/>
<stop offset="1" stop-color="#FFD371"/>
</linearGradient>
<radialGradient id="paint1_diamond" cx="0" cy="0" r="1" gradientUnits="userSpaceOnUse" gradientTransform="translate(19.827 27.838) rotate(61.2371) scale(35.9006 53.7612)">
<stop stop-color="#FF4848"/>
<stop offset="0.65217" stop-color="#FFD371"/>
</radialGradient>
</defs>
</svg>
