<svg width="60" height="60" viewBox="0 0 60 60" fill="none" xmlns="http://www.w3.org/2000/svg">
<path d="M30 60C37.9565 60 45.5871 56.8393 51.2132 51.2132C56.8393 45.5871 60 37.9565 60 30C60 22.0435 56.8393 14.4129 51.2132 8.7868C45.5871 3.16071 37.9565 0 30 0C22.0435 0 14.4129 3.16071 8.7868 8.7868C3.16071 14.4129 0 22.0435 0 30C0 37.9565 3.16071 45.5871 8.7868 51.2132C14.4129 56.8393 22.0435 60 30 60ZM26.25 24.375C26.25 27.48 24.57 30 22.5 30C20.43 30 18.75 27.48 18.75 24.375C18.75 21.27 20.43 18.75 22.5 18.75C24.57 18.75 26.25 21.27 26.25 24.375ZM16.0687 35.8763C16.4994 35.6276 17.0112 35.5602 17.4915 35.6889C17.9718 35.8176 18.3814 36.1319 18.63 36.5625C19.7817 38.5588 21.4389 40.2164 23.435 41.3684C25.431 42.5205 27.6954 43.1264 30 43.125C32.3046 43.1264 34.569 42.5205 36.565 41.3684C38.5611 40.2164 40.2183 38.5588 41.37 36.5625C41.4922 36.3475 41.6557 36.1589 41.8512 36.0074C42.0466 35.8559 42.2701 35.7445 42.5087 35.6797C42.7473 35.6149 42.9964 35.598 43.2416 35.6299C43.4869 35.6617 43.7233 35.7418 43.9375 35.8654C44.1516 35.9891 44.3392 36.1539 44.4894 36.3503C44.6396 36.5467 44.7495 36.7709 44.8127 37.01C44.8759 37.249 44.8912 37.4982 44.8577 37.7432C44.8242 37.9882 44.7426 38.2242 44.6175 38.4375C43.1367 41.0038 41.0061 43.1348 38.44 44.616C35.8739 46.0972 32.9629 46.8763 30 46.875C27.0371 46.8763 24.1261 46.0972 21.56 44.616C18.9939 43.1348 16.8633 41.0038 15.3825 38.4375C15.1339 38.0069 15.0665 37.4951 15.1952 37.0148C15.3239 36.5344 15.6381 36.1249 16.0687 35.8763ZM37.5 30C35.43 30 33.75 27.48 33.75 24.375C33.75 21.27 35.43 18.75 37.5 18.75C39.57 18.75 41.25 21.27 41.25 24.375C41.25 27.48 39.57 30 37.5 30Z" fill="url(#paint0_linear)"/>
<defs>
<linearGradient id="paint0_linear" x1="30" y1="0" x2="30" y2="60" gradientUnits="userSpaceOnUse">
<stop stop-color="#FF4848"/>
<stop offset="1" stop-color="#FFD371"/>
</linearGradient>
</defs>
</svg>
