<svg width="55" height="55" viewBox="0 0 55 55" fill="none" xmlns="http://www.w3.org/2000/svg">
<path d="M27.5 51.5625C21.1182 51.5625 14.9978 49.0274 10.4852 44.5148C5.97265 40.0022 3.4375 33.8818 3.4375 27.5C3.4375 21.1182 5.97265 14.9978 10.4852 10.4852C14.9978 5.97265 21.1182 3.4375 27.5 3.4375C33.8818 3.4375 40.0022 5.97265 44.5148 10.4852C49.0274 14.9978 51.5625 21.1182 51.5625 27.5C51.5625 33.8818 49.0274 40.0022 44.5148 44.5148C40.0022 49.0274 33.8818 51.5625 27.5 51.5625ZM27.5 55C34.7935 55 41.7882 52.1027 46.9454 46.9454C52.1027 41.7882 55 34.7935 55 27.5C55 20.2065 52.1027 13.2118 46.9454 8.05456C41.7882 2.89731 34.7935 0 27.5 0C20.2065 0 13.2118 2.89731 8.05456 8.05456C2.89731 13.2118 0 20.2065 0 27.5C0 34.7935 2.89731 41.7882 8.05456 46.9454C13.2118 52.1027 20.2065 55 27.5 55Z" fill="black"/>
<path d="M14.7297 32.8866C15.1244 32.6587 15.5936 32.5969 16.0339 32.7149C16.4742 32.8328 16.8496 33.1209 17.0775 33.5156C18.1332 35.3455 19.6524 36.865 21.4821 37.9211C23.3118 38.9771 25.3874 39.5325 27.5 39.5312C29.6126 39.5325 31.6882 38.9771 33.5179 37.9211C35.3476 36.865 36.8668 35.3455 37.9225 33.5156C38.0345 33.3186 38.1844 33.1456 38.3636 33.0068C38.5427 32.8679 38.7476 32.7658 38.9663 32.7064C39.1851 32.647 39.4134 32.6315 39.6382 32.6607C39.863 32.6899 40.0797 32.7633 40.276 32.8767C40.4723 32.99 40.6443 33.141 40.782 33.3211C40.9196 33.5012 41.0204 33.7067 41.0783 33.9258C41.1362 34.1449 41.1503 34.3734 41.1195 34.598C41.0888 34.8225 41.014 35.0388 40.8994 35.2344C39.542 37.5868 37.5889 39.5403 35.2366 40.898C32.8844 42.2558 30.216 42.97 27.5 42.9688C24.784 42.97 22.1156 42.2558 19.7634 40.898C17.4111 39.5403 15.458 37.5868 14.1006 35.2344C13.8727 34.8396 13.811 34.3705 13.9289 33.9302C14.0469 33.4899 14.3349 33.1145 14.7297 32.8866ZM24.0625 22.3438C24.0625 25.19 22.5225 27.5 20.625 27.5C18.7275 27.5 17.1875 25.19 17.1875 22.3438C17.1875 19.4975 18.7275 17.1875 20.625 17.1875C22.5225 17.1875 24.0625 19.4975 24.0625 22.3438ZM37.8125 22.3438C37.8125 25.19 36.2725 27.5 34.375 27.5C32.4775 27.5 30.9375 25.19 30.9375 22.3438C30.9375 19.4975 32.4775 17.1875 34.375 17.1875C36.2725 17.1875 37.8125 19.4975 37.8125 22.3438Z" fill="black"/>
</svg>
