<svg width="71" height="70" viewBox="0 0 71 70" fill="none" xmlns="http://www.w3.org/2000/svg">
<path d="M69.6389 35C69.6389 54.0529 54.1626 69.5 35.0694 69.5C15.9763 69.5 0.5 54.0529 0.5 35C0.5 15.9471 15.9763 0.5 35.0694 0.5C54.1626 0.5 69.6389 15.9471 69.6389 35Z" stroke="#77ACF1"/>
<path d="M17.3711 38.5234C17.3711 37.8594 17.1367 37.3516 16.668 37C16.1992 36.6406 15.3555 36.2656 14.1367 35.875C12.918 35.4766 11.9531 35.0859 11.2422 34.7031C9.30469 33.6562 8.33594 32.2461 8.33594 30.4727C8.33594 29.5508 8.59375 28.7305 9.10938 28.0117C9.63281 27.2852 10.3789 26.7188 11.3477 26.3125C12.3242 25.9062 13.418 25.7031 14.6289 25.7031C15.8477 25.7031 16.9336 25.9258 17.8867 26.3711C18.8398 26.8086 19.5781 27.4297 20.1016 28.2344C20.6328 29.0391 20.8984 29.9531 20.8984 30.9766H17.3828C17.3828 30.1953 17.1367 29.5898 16.6445 29.1602C16.1523 28.7227 15.4609 28.5039 14.5703 28.5039C13.7109 28.5039 13.043 28.6875 12.5664 29.0547C12.0898 29.4141 11.8516 29.8906 11.8516 30.4844C11.8516 31.0391 12.1289 31.5039 12.6836 31.8789C13.2461 32.2539 14.0703 32.6055 15.1562 32.9336C17.1562 33.5352 18.6133 34.2812 19.5273 35.1719C20.4414 36.0625 20.8984 37.1719 20.8984 38.5C20.8984 39.9766 20.3398 41.1367 19.2227 41.9805C18.1055 42.8164 16.6016 43.2344 14.7109 43.2344C13.3984 43.2344 12.2031 42.9961 11.125 42.5195C10.0469 42.0352 9.22266 41.375 8.65234 40.5391C8.08984 39.7031 7.80859 38.7344 7.80859 37.6328H11.3359C11.3359 39.5156 12.4609 40.457 14.7109 40.457C15.5469 40.457 16.1992 40.2891 16.668 39.9531C17.1367 39.6094 17.3711 39.1328 17.3711 38.5234ZM37.1758 43H33.6602V35.6875H26.8047V43H23.2891V25.9375H26.8047V32.8516H33.6602V25.9375H37.1758V43ZM50.1016 39.4844H43.9375L42.7656 43H39.0273L45.3789 25.9375H48.6367L55.0234 43H51.2852L50.1016 39.4844ZM44.8867 36.6367H49.1523L47.0078 30.25L44.8867 36.6367ZM60.3555 43H56.8398V25.9375H60.3555V43Z" fill="url(#paint0_diamond)"/>
<defs>
<radialGradient id="paint0_diamond" cx="0" cy="0" r="1" gradientUnits="userSpaceOnUse" gradientTransform="translate(20.827 25.6549) rotate(47.2537) scale(25.4509 45.0372)">
<stop stop-color="#04009A"/>
<stop offset="0.65217" stop-color="#77ACF1"/>
</radialGradient>
</defs>
</svg>
